:SAMPLES-PER-SECOND 30
:FRAME-RANGE 1-2009
:FULLY-SPECIFIED
:DEGREES
1444
root  75.9486 38.1695 92.0901 -171.653 59.4057 -170.204
RightUpLeg  -12.3733 -2.99169 -0.0915361
RightLeg  23.3475 5.75697 2.41395
RightFoot  -10.6185 -0.102384 4.79624
RightToes  2.96424e-010 1.2921e-014 -6.02303e-014
Spine  -2.77942 -1.36292 9.90041
Spine1  7.18682 -1.21844 0.331153
HEad  4.87161 60.7302 -4.08293
LeftShoulder1  0.93774 -0.392584 -19.0747
LeftArm  -2.82588 -8.2056 -61.5556
LeftForeArm  21.0554 8.09732 -13.905
LeftHand  -113.42 61.971 -138.298
RightShoulder  1.58077 1.32094 28.193
RightArm  -28.2177 -1.15146 47.6987
RightForeArm  61.3196 -5.40272 2.19377
RightHand  0.861191 -10.464 -19.9425
LeftUpLeg  -22.7944 2.00244 0.622034
LeftLeg  67.2125 -0.455731 -0.457764
LeftFoot  2.87514 0.432642 -3.60935
LeftToes  -1.2485e-010 1.20979e-011 -1.0929e-011
1445
root  77.085 38.3216 91.4438 -173.09 58.1091 -171.874
RightUpLeg  -9.39999 -5.0211 -1.08929
RightLeg  22.3071 6.57145 2.68896
RightFoot  -12.1916 -0.0506204 4.32429
RightToes  2.96424e-010 1.2921e-014 -6.02303e-014
Spine  -2.33613 -0.206965 10.3828
Spine1  6.69571 0.188497 -0.9041
HEad  3.65159 59.1033 -5.38165
LeftShoulder1  0.92575 -0.406902 -18.6212
LeftArm  -5.38513 -6.18114 -56.9304
LeftForeArm  17.6918 8.05175 -13.2297
LeftHand  -127.646 72.498 -140.815
RightShoulder  1.57508 1.44875 27.1201
RightArm  -25.2676 2.1755 47.9323
RightForeArm  58.172 -5.75803 3.68409
RightHand  0.679649 -9.41983 -19.9034
LeftUpLeg  -26.1611 2.64893 -0.0745043
LeftLeg  62.3541 -0.19743 0.199427
LeftFoot  1.06039 0.159201 -1.5247
LeftToes  -1.2485e-010 1.20979e-011 -1.0929e-011
1446
root  78.2043 38.4441 90.7733 -174.059 56.9044 -173.359
RightUpLeg  -6.46694 -7.37193 -2.29652
RightLeg  20.7269 7.63757 3.24719
RightFoot  -13.4456 -0.0231751 3.7008
RightToes  2.96424e-010 1.2921e-014 -6.02303e-014
Spine  -2.30056 0.59384 10.4531
Spine1  6.26153 1.10402 -2.08078
HEad  1.44686 58.3908 -7.17064
LeftShoulder1  0.816028 0.0282859 -18.5795
LeftArm  -6.32243 -3.73002 -51.9917
LeftForeArm  15.2828 8.00509 -12.8914
LeftHand  -136.904 80.9313 -142.649
RightShoulder  1.73511 2.0633 26.297
RightArm  -22.3243 6.10001 47.1563
RightForeArm  54.7696 -5.2432 5.15666
RightHand  0.649943 -9.18632 -20.1989
LeftUpLeg  -28.5788 3.27252 -0.628747
LeftLeg  54.8057 1.40773 2.63772
LeftFoot  -1.76667 0.145981 -1.61633
LeftToes  -1.2485e-010 1.20979e-011 -1.0929e-011
1447
root  79.3072 38.4723 90.0265 -174.655 55.3873 -174.47
RightUpLeg  -3.49679 -8.5731 -3.34331
RightLeg  19.0731 7.37794 3.31363
RightFoot  -14.923 0.0187626 3.83408
RightToes  2.96424e-010 1.2921e-014 -6.02303e-014
Spine  -2.55823 1.05541 10.0391
Spine1  6.14608 1.48954 -2.43268
HEad  -0.0554679 58.4405 -8.42863
LeftShoulder1  0.69875 0.463074 -18.2351
LeftArm  -6.25497 -1.78184 -47.8978
LeftForeArm  13.8052 8.02041 -12.9835
LeftHand  -119.559 87.8138 -120.97
RightShoulder  1.8118 2.44351 25.4678
RightArm  -19.8699 10.6655 46.1438
RightForeArm  50.6661 -3.17243 6.5972
RightHand  0.623947 -8.97064 -20.5461
LeftUpLeg  -29.7431 3.84251 -1.10579
LeftLeg  44.6742 2.8193 3.38143
LeftFoot  -3.09981 0.00149414 0.238721
LeftToes  -1.2485e-010 1.20979e-011 -1.0929e-011
1448
root  80.3704 38.4863 89.2598 -175.045 54.0779 -175.522
RightUpLeg  -0.680873 -9.22698 -4.32845
RightLeg  17.3308 6.92987 3.19646
RightFoot  -16.1131 0.066477 4.21524
RightToes  2.96424e-010 1.2921e-014 -6.02303e-014
Spine  -2.89886 1.37999 9.14038
Spine1  6.12891 1.69595 -2.60954
HEad  -1.07097 58.6872 -9.50531
LeftShoulder1  0.663003 0.577193 -17.9297
LeftArm  -6.44483 0.00315887 -44.3591
LeftForeArm  14.2547 8.01094 -12.9232
LeftHand  -2.28831 85.4792 -1.83999
RightShoulder  1.89369 2.87786 24.5448
RightArm  -19.7134 15.9505 45.1486
RightForeArm  51.5602 -3.24599 6.40466
RightHand  0.0417929 -5.76356 -17.2277
LeftUpLeg  -29.4358 2.88547 -1.33176
LeftLeg  31.491 5.79552 4.16062
LeftFoot  -0.8978 -0.0165893 0.240909
LeftToes  -1.2485e-010 1.20979e-011 -1.0929e-011
1449
root  81.3898 38.4728 88.4195 -175.178 53.2793 -176.574
RightUpLeg  1.78661 -9.124 -5.21258
RightLeg  15.4692 6.31844 2.77105
RightFoot  -16.9178 0.116171 4.73806
RightToes  2.96424e-010 1.2921e-014 -6.02303e-014
Spine  -3.52316 1.68291 8.38625
Spine1  6.28712 2.01933 -3.17725
HEad  -3.26612 59.5918 -10.683
LeftShoulder1  0.669741 0.493005 -17.4015
LeftArm  -6.1339 2.50075 -41.5729
LeftForeArm  15.6559 8.0165 -12.9687
LeftHand  -0.661542 80.8867 -0.130005
RightShoulder  1.97772 3.35522 23.5706
RightArm  -20.3244 20.4711 44.7981
RightForeArm  48.8598 -3.53611 5.93794
RightHand  -0.0397081 -5.22314 -21.6052
LeftUpLeg  -28.0398 0.394387 -0.920958
LeftLeg  16.8669 11.9762 4.36546
LeftFoot  0.665539 -0.175408 1.62982
LeftToes  -1.2485e-010 1.20979e-011 -1.0929e-011
1450
root  82.4184 38.4148 87.4547 -174.945 52.7637 -176.825
RightUpLeg  4.6505 -8.69937 -5.73232
RightLeg  13.5757 5.70332 2.29037
RightFoot  -17.4734 0.185528 5.67232
RightToes  2.96424e-010 1.2921e-014 -6.02303e-014
Spine  -4.2732 1.92137 8.11385
Spine1  6.92574 2.34431 -3.67194
HEad  -4.80819 60.0529 -12.1238
LeftShoulder1  0.6317 0.592988 -16.8314
LeftArm  -5.05381 5.20673 -39.5226
LeftForeArm  15.9386 8.08131 -13.3919
LeftHand  1.04636 76.9764 2.00662
RightShoulder  2.03347 3.72821 22.7492
RightArm  -21.2862 24.2001 44.3031
RightForeArm  47.5307 -3.32828 5.35053
RightHand  0.571229 -8.48432 -21.7023
LeftUpLeg  -25.8869 -1.49976 -0.375065
LeftLeg  2.58232 17.4124 2.71084
LeftFoot  -0.180071 -0.127652 1.31779
LeftToes  -1.2485e-010 1.20979e-011 -1.0929e-011
1451
root  83.4475 38.252 86.3476 -174.327 52.3041 -176.255
RightUpLeg  7.34625 -8.61575 -6.14711
RightLeg  13.0438 6.09801 2.22207
RightFoot  -18.0151 0.287144 7.01427
RightToes  2.96424e-010 1.2921e-014 -6.02303e-014
Spine  -4.76042 2.0372 8.36646
Spine1  7.20841 2.43668 -3.79839
HEad  -6.41173 60.4407 -13.5741
LeftShoulder1  0.516537 1.06741 -16.6032
LeftArm  -3.97331 7.92742 -38.04
LeftForeArm  15.3224 8.14509 -13.8198
LeftHand  4.45807 73.5201 6.8017
RightShoulder  2.08099 4.08971 21.9355
RightArm  -23.4338 26.9214 44.3329
RightForeArm  50.62 -2.48691 4.02303
RightHand  0.119607 -6.21557 -18.5972
LeftUpLeg  -24.9398 -2.41494 -0.0769508
LeftLeg  -5.8287 20.379 1.5068
LeftFoot  -4.13011 -0.107652 2.1037
LeftToes  -1.2485e-010 1.20979e-011 -1.0929e-011
1452
root  84.4099 37.9507 85.2227 -174.206 51.0998 -175.898
RightUpLeg  9.32374 -8.94354 -6.58545
RightLeg  14.7057 5.82398 1.95052
RightFoot  -19.2611 0.525065 9.45713
RightToes  2.96424e-010 1.2921e-014 -6.02303e-014
Spine  -4.28307 1.7995 7.8696
Spine1  7.01717 2.11953 -3.31214
HEad  -8.9666 60.1887 -15.555
LeftShoulder1  0.508849 1.08013 -16.3707
LeftArm  -3.89205 10.2639 -37.3243
LeftForeArm  14.9627 8.15107 -13.8662
LeftHand  7.21563 70.4521 11.2259
RightShoulder  2.06185 4.10746 21.5877
RightArm  -23.7358 28.6994 43.9131
RightForeArm  50.1555 -1.01625 4.05555
RightHand  0.0982312 -6.07666 -18.7015
LeftUpLeg  -26.9331 -2.36754 -0.23714
LeftLeg  -1.12676 20.262 2.75611
LeftFoot  -5.16348 -0.152024 3.39331
LeftToes  -1.2485e-010 1.20979e-011 -1.0929e-011
1453
root  85.4054 37.7657 83.973 -175.356 50.1591 -176.891
RightUpLeg  11.8214 -8.99975 -8.35297
RightLeg  16.0677 7.07053 2.15945
RightFoot  -19.3695 0.704802 11.8838
RightToes  2.96424e-010 1.2921e-014 -6.02303e-014
Spine  -4.72809 1.82475 6.3755
Spine1  8.29655 2.18538 -2.95846
HEad  -11.3313 58.9028 -16.6937
LeftShoulder1  0.517554 1.02416 -16.1753
LeftArm  -4.76202 11.3015 -37.5426
LeftForeArm  16.1157 8.1143 -13.6088
LeftHand  8.80991 68.3648 14.1119
RightShoulder  2.10183 4.16374 21.9373
RightArm  -23.6769 28.78 42.7533
RightForeArm  47.9643 1.67311 4.7169
RightHand  0.203595 -6.6536 -19.7557
LeftUpLeg  -28.4637 -2.04937 -1.22499
LeftLeg  6.38119 21.0621 4.12829
LeftFoot  -2.02521 -0.331667 4.21916
LeftToes  -1.2485e-010 1.20979e-011 -1.0929e-011
